<svg width="1463" height="864" viewBox="0 0 1463 864" fill="none" xmlns="http://www.w3.org/2000/svg">
<path opacity="0.2" d="M0 0.00385063C0 0.00385063 203.263 83.426 336.5 86.5795C494.522 90.3197 579.174 -0.681377 737.25 0.00385063C890.108 0.666461 971.673 89.4011 1124.5 86.5795C1258.52 84.1051 1463 0.00385076 1463 0.00385076V863.975C1463 863.975 1249.55 779.358 1109 778.292C961.625 777.175 884.619 862.357 737.25 863.975C578.714 865.716 494.976 774.045 336.5 778.292C202.72 781.878 0 863.975 0 863.975V0.00385063Z" fill="black"/>
<path opacity="0.2" d="M0 18.0048C0 18.0048 203.263 83.5521 336.5 86.7044C494.522 90.4432 579.174 17.3198 737.25 18.0048C890.108 18.6671 971.673 89.525 1124.5 86.7044C1258.52 84.2309 1463 18.0048 1463 18.0048V845.97C1463 845.97 1249.55 779.227 1109 778.162C961.625 777.045 884.619 844.352 737.25 845.97C578.714 847.71 494.976 773.916 336.5 778.162C202.72 781.746 0 845.97 0 845.97V18.0048Z" fill="white"/>
<path d="M0 36.0063C0 36.0063 203.263 83.6901 336.5 86.8412C494.522 90.5785 579.174 35.3216 737.25 36.0063C890.108 36.6684 971.673 89.6606 1124.5 86.8412C1258.52 84.3687 1463 36.0063 1463 36.0063V827.96C1463 827.96 1249.55 779.082 1109 778.017C961.625 776.901 884.619 826.343 737.25 827.96C578.714 829.7 494.976 773.773 336.5 778.017C202.72 781.6 0 827.96 0 827.96V36.0063Z" fill="white"/>
</svg>