<svg width="124" height="21" viewBox="0 0 124 21" fill="none" xmlns="http://www.w3.org/2000/svg">
<path d="M19.5137 14.5947C19.5137 15.377 19.3643 16.1152 19.0654 16.8096C18.7754 17.4951 18.3711 18.0972 17.8525 18.6157C17.3428 19.1255 16.7407 19.5298 16.0464 19.8286C15.3608 20.1187 14.627 20.2637 13.8447 20.2637C13.1416 20.2637 12.4648 20.1406 11.8145 19.8945C11.1729 19.6484 10.5928 19.2881 10.0742 18.8135C9.55566 19.2881 8.97119 19.6484 8.3208 19.8945C7.67041 20.1406 6.99365 20.2637 6.29053 20.2637C5.5083 20.2637 4.77002 20.1187 4.07568 19.8286C3.39014 19.5298 2.78809 19.1255 2.26953 18.6157C1.75977 18.0972 1.35547 17.4951 1.05664 16.8096C0.766602 16.1152 0.621582 15.377 0.621582 14.5947V1.09473H4.40527V14.5947C4.40527 14.8584 4.45361 15.1089 4.55029 15.3462C4.64697 15.5747 4.77881 15.7769 4.9458 15.9526C5.12158 16.1196 5.32373 16.2515 5.55225 16.3481C5.78076 16.4448 6.02686 16.4932 6.29053 16.4932C6.5542 16.4932 6.80029 16.4448 7.02881 16.3481C7.25732 16.2515 7.45508 16.1196 7.62207 15.9526C7.79785 15.7769 7.93408 15.5747 8.03076 15.3462C8.12744 15.1089 8.17578 14.8584 8.17578 14.5947V1.09473H11.9595V14.5947C11.9595 14.8584 12.0078 15.1089 12.1045 15.3462C12.2012 15.5747 12.333 15.7769 12.5 15.9526C12.6758 16.1196 12.8779 16.2515 13.1064 16.3481C13.335 16.4448 13.5811 16.4932 13.8447 16.4932C14.1084 16.4932 14.3545 16.4448 14.583 16.3481C14.8115 16.2515 15.0093 16.1196 15.1763 15.9526C15.3521 15.7769 15.4883 15.5747 15.585 15.3462C15.6904 15.1089 15.7432 14.8584 15.7432 14.5947V1.09473H19.5137V14.5947ZM27.9512 16.5459C28.0918 16.5898 28.2324 16.6206 28.373 16.6382C28.5137 16.647 28.6543 16.6514 28.7949 16.6514C29.1465 16.6514 29.4849 16.603 29.8101 16.5063C30.1353 16.4097 30.4385 16.2734 30.7197 16.0977C31.0098 15.9131 31.2646 15.6934 31.4844 15.4385C31.7129 15.1748 31.8975 14.8848 32.0381 14.5684L34.6748 17.2183C34.3408 17.6929 33.9541 18.1191 33.5146 18.4971C33.084 18.875 32.6138 19.1958 32.104 19.4595C31.603 19.7231 31.0713 19.9209 30.5088 20.0527C29.9551 20.1934 29.3838 20.2637 28.7949 20.2637C27.8018 20.2637 26.8657 20.0791 25.9868 19.71C25.1167 19.3408 24.3521 18.8267 23.6929 18.1675C23.0425 17.5083 22.5283 16.7261 22.1504 15.8208C21.7725 14.9067 21.5835 13.9048 21.5835 12.8149C21.5835 11.6987 21.7725 10.6792 22.1504 9.75635C22.5283 8.8335 23.0425 8.04688 23.6929 7.39648C24.3521 6.74609 25.1167 6.24072 25.9868 5.88037C26.8657 5.52002 27.8018 5.33984 28.7949 5.33984C29.3838 5.33984 29.9595 5.41016 30.522 5.55078C31.0845 5.69141 31.6162 5.89355 32.1172 6.15723C32.627 6.4209 33.1016 6.74609 33.541 7.13281C33.9805 7.51074 34.3672 7.93701 34.7012 8.41162L27.9512 16.5459ZM29.7969 9.12354C29.6299 9.06201 29.4629 9.02246 29.2959 9.00488C29.1377 8.9873 28.9707 8.97852 28.7949 8.97852C28.3027 8.97852 27.8369 9.0708 27.3975 9.25537C26.9668 9.43115 26.5889 9.68604 26.2637 10.02C25.9473 10.354 25.6968 10.7583 25.5122 11.2329C25.3276 11.6987 25.2354 12.2261 25.2354 12.8149C25.2354 12.9468 25.2397 13.0962 25.2485 13.2632C25.2661 13.4302 25.2881 13.6016 25.3145 13.7773C25.3496 13.9443 25.3892 14.1069 25.4331 14.2651C25.4771 14.4233 25.5342 14.564 25.6045 14.687L29.7969 9.12354ZM48.7549 8.68848L46.1182 11.3384C45.9863 10.9692 45.8062 10.6396 45.5776 10.3496C45.3491 10.0508 45.0898 9.80029 44.7998 9.59814C44.5186 9.396 44.2109 9.24219 43.877 9.13672C43.543 9.03125 43.2002 8.97852 42.8486 8.97852C42.3564 8.97852 41.8906 9.07959 41.4512 9.28174C41.0205 9.48389 40.6426 9.76953 40.3174 10.1387C40.001 10.499 39.7505 10.9297 39.5659 11.4307C39.3813 11.9316 39.2891 12.4854 39.2891 13.0918C39.2891 13.584 39.3813 14.0454 39.5659 14.4761C39.7505 14.9067 40.001 15.2847 40.3174 15.6099C40.6426 15.9351 41.0205 16.1899 41.4512 16.3745C41.8906 16.5591 42.3564 16.6514 42.8486 16.6514C43.2002 16.6514 43.5386 16.603 43.8638 16.5063C44.189 16.4097 44.4922 16.2734 44.7734 16.0977C45.0635 15.9131 45.3184 15.6934 45.5381 15.4385C45.7666 15.1748 45.9512 14.8848 46.0918 14.5684L48.7285 17.2183C48.3945 17.6929 48.0078 18.1191 47.5684 18.4971C47.1377 18.875 46.6675 19.1958 46.1577 19.4595C45.6567 19.7231 45.125 19.9209 44.5625 20.0527C44.0088 20.1934 43.4375 20.2637 42.8486 20.2637C41.8555 20.2637 40.9194 20.0791 40.0405 19.71C39.1704 19.332 38.4058 18.8179 37.7466 18.1675C37.0962 17.5171 36.582 16.7568 36.2041 15.8867C35.8262 15.0166 35.6372 14.085 35.6372 13.0918C35.6372 12.0107 35.8262 11 36.2041 10.0596C36.582 9.11914 37.0962 8.30176 37.7466 7.60742C38.4058 6.9043 39.1704 6.35059 40.0405 5.94629C40.9194 5.54199 41.8555 5.33984 42.8486 5.33984C43.4375 5.33984 44.0132 5.41455 44.5757 5.56396C45.147 5.71338 45.6875 5.93311 46.1973 6.22314C46.7158 6.50439 47.1904 6.85156 47.6211 7.26465C48.0605 7.67773 48.4385 8.15234 48.7549 8.68848ZM63.9556 12.8149C63.9556 13.8696 63.7666 14.854 63.3887 15.7681C63.0107 16.6733 62.4966 17.46 61.8462 18.1279C61.1958 18.7871 60.4312 19.3101 59.5522 19.6968C58.6821 20.0747 57.7461 20.2637 56.7441 20.2637C55.751 20.2637 54.8149 20.0747 53.936 19.6968C53.0659 19.3101 52.3013 18.7871 51.6421 18.1279C50.9917 17.46 50.4775 16.6733 50.0996 15.7681C49.7217 14.854 49.5327 13.8696 49.5327 12.8149C49.5327 11.7427 49.7217 10.7495 50.0996 9.83545C50.4775 8.92139 50.9917 8.13477 51.6421 7.47559C52.3013 6.80762 53.0659 6.28467 53.936 5.90674C54.8149 5.52881 55.751 5.33984 56.7441 5.33984C57.7461 5.33984 58.6821 5.52002 59.5522 5.88037C60.4312 6.23193 61.1958 6.7373 61.8462 7.39648C62.4966 8.04688 63.0107 8.8335 63.3887 9.75635C63.7666 10.6704 63.9556 11.6899 63.9556 12.8149ZM60.3301 12.8149C60.3301 12.2349 60.2334 11.7119 60.04 11.2461C59.8555 10.7715 59.6006 10.3672 59.2754 10.0332C58.9502 9.69043 58.5679 9.43115 58.1284 9.25537C57.6978 9.0708 57.2363 8.97852 56.7441 8.97852C56.252 8.97852 55.7861 9.0708 55.3467 9.25537C54.916 9.43115 54.5381 9.69043 54.2129 10.0332C53.8965 10.3672 53.646 10.7715 53.4614 11.2461C53.2769 11.7119 53.1846 12.2349 53.1846 12.8149C53.1846 13.3599 53.2769 13.8652 53.4614 14.3311C53.646 14.7969 53.8965 15.2012 54.2129 15.5439C54.5381 15.8867 54.916 16.1592 55.3467 16.3613C55.7861 16.5547 56.252 16.6514 56.7441 16.6514C57.2363 16.6514 57.6978 16.5591 58.1284 16.3745C58.5679 16.1899 58.9502 15.9307 59.2754 15.5967C59.6006 15.2627 59.8555 14.8584 60.04 14.3838C60.2334 13.9092 60.3301 13.3862 60.3301 12.8149ZM79.5913 12.8149C79.5913 13.8696 79.4023 14.854 79.0244 15.7681C78.6465 16.6733 78.1323 17.46 77.4819 18.1279C76.8315 18.7871 76.0669 19.3101 75.188 19.6968C74.3179 20.0747 73.3818 20.2637 72.3799 20.2637C71.3867 20.2637 70.4507 20.0747 69.5718 19.6968C68.7017 19.3101 67.937 18.7871 67.2778 18.1279C66.6274 17.46 66.1133 16.6733 65.7354 15.7681C65.3574 14.854 65.1685 13.8696 65.1685 12.8149C65.1685 11.7427 65.3574 10.7495 65.7354 9.83545C66.1133 8.92139 66.6274 8.13477 67.2778 7.47559C67.937 6.80762 68.7017 6.28467 69.5718 5.90674C70.4507 5.52881 71.3867 5.33984 72.3799 5.33984C73.3818 5.33984 74.3179 5.52002 75.188 5.88037C76.0669 6.23193 76.8315 6.7373 77.4819 7.39648C78.1323 8.04688 78.6465 8.8335 79.0244 9.75635C79.4023 10.6704 79.5913 11.6899 79.5913 12.8149ZM75.9658 12.8149C75.9658 12.2349 75.8691 11.7119 75.6758 11.2461C75.4912 10.7715 75.2363 10.3672 74.9111 10.0332C74.5859 9.69043 74.2036 9.43115 73.7642 9.25537C73.3335 9.0708 72.8721 8.97852 72.3799 8.97852C71.8877 8.97852 71.4219 9.0708 70.9824 9.25537C70.5518 9.43115 70.1738 9.69043 69.8486 10.0332C69.5322 10.3672 69.2817 10.7715 69.0972 11.2461C68.9126 11.7119 68.8203 12.2349 68.8203 12.8149C68.8203 13.3599 68.9126 13.8652 69.0972 14.3311C69.2817 14.7969 69.5322 15.2012 69.8486 15.5439C70.1738 15.8867 70.5518 16.1592 70.9824 16.3613C71.4219 16.5547 71.8877 16.6514 72.3799 16.6514C72.8721 16.6514 73.3335 16.5591 73.7642 16.3745C74.2036 16.1899 74.5859 15.9307 74.9111 15.5967C75.2363 15.2627 75.4912 14.8584 75.6758 14.3838C75.8691 13.9092 75.9658 13.3862 75.9658 12.8149ZM85.2075 20H81.582V0.26416H85.2075V12.7095L90.5732 5.90674H94.7129L90.0327 11.7866L94.7129 20H90.5732L87.7124 14.8716L85.2075 18.1938V20ZM101.305 16.5459C101.445 16.5898 101.586 16.6206 101.727 16.6382C101.867 16.647 102.008 16.6514 102.148 16.6514C102.5 16.6514 102.838 16.603 103.164 16.5063C103.489 16.4097 103.792 16.2734 104.073 16.0977C104.363 15.9131 104.618 15.6934 104.838 15.4385C105.066 15.1748 105.251 14.8848 105.392 14.5684L108.028 17.2183C107.694 17.6929 107.308 18.1191 106.868 18.4971C106.438 18.875 105.967 19.1958 105.458 19.4595C104.957 19.7231 104.425 19.9209 103.862 20.0527C103.309 20.1934 102.737 20.2637 102.148 20.2637C101.155 20.2637 100.219 20.0791 99.3403 19.71C98.4702 19.3408 97.7056 18.8267 97.0464 18.1675C96.396 17.5083 95.8818 16.7261 95.5039 15.8208C95.126 14.9067 94.937 13.9048 94.937 12.8149C94.937 11.6987 95.126 10.6792 95.5039 9.75635C95.8818 8.8335 96.396 8.04688 97.0464 7.39648C97.7056 6.74609 98.4702 6.24072 99.3403 5.88037C100.219 5.52002 101.155 5.33984 102.148 5.33984C102.737 5.33984 103.313 5.41016 103.875 5.55078C104.438 5.69141 104.97 5.89355 105.471 6.15723C105.98 6.4209 106.455 6.74609 106.895 7.13281C107.334 7.51074 107.721 7.93701 108.055 8.41162L101.305 16.5459ZM103.15 9.12354C102.983 9.06201 102.816 9.02246 102.649 9.00488C102.491 8.9873 102.324 8.97852 102.148 8.97852C101.656 8.97852 101.19 9.0708 100.751 9.25537C100.32 9.43115 99.9424 9.68604 99.6172 10.02C99.3008 10.354 99.0503 10.7583 98.8657 11.2329C98.6812 11.6987 98.5889 12.2261 98.5889 12.8149C98.5889 12.9468 98.5933 13.0962 98.6021 13.2632C98.6196 13.4302 98.6416 13.6016 98.668 13.7773C98.7031 13.9443 98.7427 14.1069 98.7866 14.2651C98.8306 14.4233 98.8877 14.564 98.958 14.687L103.15 9.12354ZM123.414 20H122.543L121.146 18.062C120.803 18.3696 120.438 18.6597 120.052 18.9321C119.674 19.1958 119.274 19.4287 118.852 19.6309C118.43 19.8242 117.995 19.978 117.547 20.0923C117.107 20.2065 116.659 20.2637 116.202 20.2637C115.209 20.2637 114.273 20.0791 113.394 19.71C112.524 19.332 111.759 18.8135 111.1 18.1543C110.45 17.4863 109.936 16.6997 109.558 15.7944C109.18 14.8804 108.991 13.8872 108.991 12.8149C108.991 11.7515 109.18 10.7627 109.558 9.84863C109.936 8.93457 110.45 8.14355 111.1 7.47559C111.759 6.80762 112.524 6.28467 113.394 5.90674C114.273 5.52881 115.209 5.33984 116.202 5.33984C116.519 5.33984 116.844 5.36621 117.178 5.41895C117.521 5.47168 117.85 5.55957 118.167 5.68262C118.492 5.79688 118.795 5.95068 119.076 6.14404C119.357 6.3374 119.595 6.57471 119.788 6.85596V0.26416H123.414V20ZM119.788 12.8149C119.788 12.3228 119.691 11.8481 119.498 11.3911C119.313 10.9253 119.059 10.5166 118.733 10.165C118.408 9.80469 118.026 9.51904 117.586 9.30811C117.156 9.08838 116.694 8.97852 116.202 8.97852C115.71 8.97852 115.244 9.06641 114.805 9.24219C114.374 9.41797 113.996 9.67285 113.671 10.0068C113.354 10.332 113.104 10.7319 112.919 11.2065C112.735 11.6812 112.643 12.2173 112.643 12.8149C112.643 13.3335 112.735 13.8257 112.919 14.2915C113.104 14.7573 113.354 15.166 113.671 15.5176C113.996 15.8691 114.374 16.146 114.805 16.3481C115.244 16.5503 115.71 16.6514 116.202 16.6514C116.694 16.6514 117.156 16.5459 117.586 16.335C118.026 16.1152 118.408 15.8296 118.733 15.478C119.059 15.1177 119.313 14.709 119.498 14.252C119.691 13.7861 119.788 13.3071 119.788 12.8149Z" fill="url(#paint0_linear_735_37269)"/>
<defs>
<linearGradient id="paint0_linear_735_37269" x1="62" y1="-3" x2="62" y2="23" gradientUnits="userSpaceOnUse">
<stop stop-color="#F0725C"/>
<stop offset="1" stop-color="#FE3511"/>
</linearGradient>
</defs>
</svg>
